<mxfile host="app.diagrams.net" modified="2023-12-16T06:52:54.718Z" agent="Mozilla/5.0 (Windows NT 10.0; Win64; x64) AppleWebKit/537.36 (KHTML, like Gecko) Chrome/120.0.0.0 Safari/537.36 Edg/120.0.0.0" version="22.1.11" etag="OE_65r8Zo281RHRJ1lqZ" type="github">
  <diagram name="第 1 页" id="W5mVg4F8SoVZQXLFe4Fg">
    <mxGraphModel>
      <root>
        <mxCell id="0" />
        <mxCell id="1" parent="0" />
      </root>
    </mxGraphModel>
  </diagram>
</mxfile>
